<svg width="46" height="46" viewBox="0 0 46 46" fill="none" xmlns="http://www.w3.org/2000/svg">
<path d="M6.19934 6.19824V39.8005H39.8016V6.19824H6.19934ZM37.1062 37.1051H8.89471V8.89361H37.1062V37.1051Z" fill="#00358F"/>
<path d="M39.8016 6.19824V39.8005H23.0005V37.1051H37.1062V8.89361H23.0005V6.19824H39.8016Z" fill="#012453"/>
<path d="M16.0715 4.19873L15.4609 4.35722V13.0719L23.0079 17.4291L30.5548 13.0719V4.35722L29.9442 4.19873H16.0715Z" fill="#00B3FE"/>
<path d="M23.0079 4.19873V17.4291L30.5549 13.0719V4.35722L29.9443 4.19873H23.0079Z" fill="#0274F9"/>
<path d="M30.5546 4.35724V4.3576L23.0076 8.71286L15.4607 4.3576V4.35724L23.0076 0L30.5546 4.35724Z" fill="#01F5FF"/>
<path d="M30.5549 4.35724V4.3576L23.0079 8.71286V0L30.5549 4.35724Z" fill="#00B3FE"/>
<path d="M16.0715 32.7695L15.4609 32.9281V41.6426L23.0079 45.9999L30.5548 41.6426V32.9281L29.9442 32.7695H16.0715Z" fill="#00B3FE"/>
<path d="M23.0079 32.7695V45.9999L30.5549 41.6426V32.9281L29.9443 32.7695H23.0079Z" fill="#0274F9"/>
<path d="M30.5546 32.9281V32.9284L23.0076 37.2837L15.4607 32.9284V32.9281L23.0076 28.5708L30.5546 32.9281Z" fill="#01F5FF"/>
<path d="M30.5549 32.9281V32.9284L23.0079 37.2837V28.5708L30.5549 32.9281Z" fill="#00B3FE"/>
<path d="M0.61059 18.4834L0 18.6419V27.3565L7.54693 31.7138L15.0938 27.3565V18.6419L14.4833 18.4834H0.61059Z" fill="#00B3FE"/>
<path d="M7.54712 18.4834V31.7138L15.094 27.3565V18.6419L14.4835 18.4834H7.54712Z" fill="#0274F9"/>
<path d="M15.0938 18.6421V18.6425L7.54693 22.9978L0 18.6425V18.6421L7.54693 14.2849L15.0938 18.6421Z" fill="#01F5FF"/>
<path d="M15.094 18.6421V18.6425L7.54712 22.9978V14.2849L15.094 18.6421Z" fill="#00B3FE"/>
<path d="M31.5179 18.4834L30.9073 18.6419V27.3565L38.4542 31.7138L46.0011 27.3565V18.6419L45.3905 18.4834H31.5179Z" fill="#00B3FE"/>
<path d="M38.4543 18.4834V31.7138L46.0013 27.3565V18.6419L45.3907 18.4834H38.4543Z" fill="#0274F9"/>
<path d="M46.001 18.6421V18.6425L38.4541 22.9978L30.9072 18.6425V18.6421L38.4541 14.2849L46.001 18.6421Z" fill="#01F5FF"/>
<path d="M46.0013 18.6421V18.6425L38.4543 22.9978V14.2849L46.0013 18.6421Z" fill="#00B3FE"/>
</svg>
